<svg id="Layer_1" width="150" height="50" data-name="Layer 1" xmlns="http://www.w3.org/2000/svg" viewBox="0 0 155.89 52.75"><defs><style>.cls-1,.cls-2{fill:#fdff5d;}.cls-2{font-size:19px;font-family:MyriadPro-Semibold, Myriad Pro;font-weight:700;}</style></defs><title>logo1</title><path class="cls-1" d="M268,264.58,263.88,254a1.07,1.07,0,0,0-1-.68h-1.67a1.06,1.06,0,0,1-1-.68l-6.68-17.2h-6L241,251.84a1.06,1.06,0,0,0,1,1.45,1.06,1.06,0,0,1,1,1.45l-3.89,9.84H268Zm-17.61-23.94,4.62,12a1.06,1.06,0,0,0,1,.68h1.67a1.07,1.07,0,0,1,1,.68l2.39,6.19H246l2.09-5.43a1.06,1.06,0,0,0-1-1.44h0a1.06,1.06,0,0,1-1-1.44l4.32-11.21h0Zm69,19.49v4.45H297.23v-10a1.34,1.34,0,0,0-1.34-1.34h-.45a1.33,1.33,0,0,1-1.34-1.34V235.42h21.75v4.46H299.11v9h14.25v4.46h-9.79a1.34,1.34,0,0,0-1.34,1.34v5.5h17.16Zm-119.69-5.5v9.95h-4.92v-10a1.33,1.33,0,0,0-1.33-1.34H193a1.33,1.33,0,0,1-1.34-1.34V239.88h-8.42V252a1.34,1.34,0,0,0,1.34,1.34H185a1.34,1.34,0,0,1,1.34,1.34v9.95h-4.92v-10a1.33,1.33,0,0,0-1.33-1.34h-.45a1.34,1.34,0,0,1-1.34-1.34V239.88h-8.41V252a1.34,1.34,0,0,0,1.34,1.34h.45a1.34,1.34,0,0,1,1.34,1.34v9.95h-4.92v-10a1.34,1.34,0,0,0-1.34-1.34h-.45A1.34,1.34,0,0,1,165,252V235.42h31.58V252a1.34,1.34,0,0,0,1.34,1.34h.45a1.34,1.34,0,0,1,1.34,1.34Zm36.49-1.34h-1a1.35,1.35,0,0,1-1.2-.75,2.88,2.88,0,0,0-.6-.83,4.82,4.82,0,0,0-3.42-1,7.18,7.18,0,0,0,3.58-2.71,8,8,0,0,0,1.29-4.66,7.27,7.27,0,0,0-1.19-4.06,8.06,8.06,0,0,0-3.25-2.83,10.23,10.23,0,0,0-4.6-1H212.67V252a1.33,1.33,0,0,0,1.33,1.34h.45a1.34,1.34,0,0,1,1.34,1.34v9.95h5v-10a1.34,1.34,0,0,1,1.34-1.34h7.62a6.3,6.3,0,0,1,1.07.08h0a2.06,2.06,0,0,1,1.13.48,3.13,3.13,0,0,1,.58,2.23v8.5h5v-9.75c0-.08,0-.18,0-.28a1.34,1.34,0,0,0-1.34-1.25h0Zm-7-6.63a4.14,4.14,0,0,1-1.79,1.63,6.54,6.54,0,0,1-2.89.58h-6.88v-9h6.88a6.21,6.21,0,0,1,3.94,1.08,3.91,3.91,0,0,1,1.35,3.25,4.81,4.81,0,0,1-.6,2.46Zm-18.9,8v10h-5v-10a1.33,1.33,0,0,0-1.33-1.34h-.45a1.34,1.34,0,0,1-1.34-1.34V235.42h5V252a1.33,1.33,0,0,0,1.34,1.34H209A1.34,1.34,0,0,1,210.34,254.63Zm83.13,0v10h-4.38v-3a8.44,8.44,0,0,1-1.89,1.67,10.74,10.74,0,0,1-2.86,1.29,13.14,13.14,0,0,1-3.75.5,13.57,13.57,0,0,1-7.27-1.94,13.05,13.05,0,0,1-4.87-5.35,23.11,23.11,0,0,1-1.19-3.44,1.33,1.33,0,0,0-1.29-1H265a1.33,1.33,0,0,1-1.33-1.18,20.22,20.22,0,0,1-.11-2.11,16.64,16.64,0,0,1,1.75-7.71,13,13,0,0,1,5-5.35,15.79,15.79,0,0,1,13.89-.62,10.15,10.15,0,0,1,4.19,3.63,11,11,0,0,1,1.71,5.31h-5A6.41,6.41,0,0,0,283,241a7.29,7.29,0,0,0-4.92-1.54h-.41a9,9,0,0,0-4.83,1.27,8.28,8.28,0,0,0-3.14,3.64A13.26,13.26,0,0,0,268.6,250a16.64,16.64,0,0,0,.13,2.15,1.31,1.31,0,0,0,1.32,1.14h1a1.33,1.33,0,0,1,1.28.94,14.11,14.11,0,0,0,.5,1.39,8.27,8.27,0,0,0,3.14,3.64,9,9,0,0,0,4.83,1.27h.41a9,9,0,0,0,3.79-.77,6.74,6.74,0,0,0,2.77-2.12,7.36,7.36,0,0,0,1.21-2.76,1.35,1.35,0,0,0-1.32-1.6h-9.79v-4.46h8.92a3.8,3.8,0,0,1,2.62.92,3.74,3.74,0,0,1,.89,2.35,1.33,1.33,0,0,0,1.33,1.19h.49a1.34,1.34,0,0,1,1.34,1.34h0Z" transform="translate(-165 -235)"/><text class="cls-2" transform="translate(108.5 48)">DOCS</text></svg>